<?xml version="1.0" encoding="UTF-8" standalone="no"?>
<!DOCTYPE svg PUBLIC "-//W3C//DTD SVG 1.1//EN" "http://www.w3.org/Graphics/SVG/1.1/DTD/svg11.dtd">
<svg width="100%" height="100%" viewBox="0 0 612 612" version="1.1" xmlns="http://www.w3.org/2000/svg" xmlns:xlink="http://www.w3.org/1999/xlink" xml:space="preserve" xmlns:serif="http://www.serif.com/" style="fill-rule:evenodd;clip-rule:evenodd;stroke-linejoin:round;stroke-miterlimit:2;">
    <g>
        <g transform="matrix(1,0,0,1,8.597679,1.659197)">
            <path d="M107.1,222.8L107.1,243.3C106.1,243 105.4,242.9 104.8,242.6C98,238.6 90.3,237.4 82.7,236.3C77,235.5 71.3,235.3 65.7,234.7C65,234.6 64.4,233.7 63.7,233.2C64.6,232.6 65.4,231.7 66.3,231.6C71,230.9 75.8,230.5 80.5,230C89.3,229 98,227.4 105.8,223C106.1,222.9 106.4,222.9 107.1,222.8Z" style="fill:white;"/>
            <path d="M230,430.9C230.9,424.7 232.1,418.4 232.6,412.2C233.4,404 233.8,395.7 234.4,387.4C234.4,387 234.3,386.5 234.1,385.4C232.7,387.1 231.7,388.4 230.6,389.6C222.3,399.5 212.6,407.8 201.3,414.1C195.3,417.4 189.6,421.1 183.8,424.8C177.1,429.1 170.4,433.5 163.8,437.9C157.9,441.8 153.9,447.3 151.2,453.8C147,463.9 145.9,474.5 147.2,485.3C147.8,490.7 149.2,496 150.3,501.3C150.9,504 151.5,506.8 152,509.5C152.5,512.1 149.1,517.6 145.7,519.3C140.7,521.9 135.8,521.3 131.1,518.6C123,514 117.8,506.8 113.4,498.8C110.1,492.7 107.6,486.4 105.9,479.7C105.2,477 104.5,474.3 104.2,471.5C103,461.1 102,450.7 104,440.3C106,429.9 110.4,420.6 116.1,411.8C122.4,402.1 130.2,393.8 139.7,387.2C146.5,382.4 153.7,378.4 160.8,374C162.7,372.8 164.7,371.6 167.3,370.1C165.9,369.8 165.2,369.6 164.4,369.5C140.6,367.9 123.7,355.8 112.8,335.1C108.7,327.4 106.6,318.9 106.6,310.1L106.6,247.1C106.6,246.1 106.8,245.1 106.9,243.3C108.5,244.6 109.8,245.5 110.8,246.6C114.3,250.3 116.6,254.7 118,259.6C120.7,268.7 122.1,278 122.5,287.4C122.5,288.1 123.3,288.9 123.8,289.6C124.3,288.8 125,288.1 125.1,287.3C126.3,279.8 127.1,272.3 128.4,264.9C129.5,259.1 131.5,253.5 135.2,248.7C139.7,242.9 145.9,239.9 152.8,238.4C160.3,236.8 168,236 175.6,234.7C176.4,234.6 177.1,233.9 177.8,233.5C177.1,232.9 176.5,231.9 175.8,231.8C171.5,231.1 167.1,230.6 162.7,230C154.8,228.9 147,227.1 140.3,222.5C136,219.6 133.2,215.3 131.2,210.5C128.1,203 127.3,195.1 126.1,187.2C125.6,184.1 125.5,180.9 125.1,177.8C125.1,177.2 124.4,176.7 124,176.2C123.5,176.8 122.7,177.3 122.6,177.9C121.6,185.9 121.1,193.9 119.5,201.8C118,209.1 115.4,216 109.4,221.1C108.9,221.5 108.5,221.9 108,222.2C107.8,222.3 107.5,222.3 106.7,222.5L106.7,218.2C106.7,175.4 106.6,132.5 106.8,89.7C106.9,65.5 118.1,47.6 138.7,35.4C144.1,32.2 150,29.9 156.3,29.1C159.9,28.7 163.6,28.1 167.3,28.1C250,28 332.6,28 415.2,28C424,28 432,30.5 440.5,34.7C452.8,40.8 462,50 468.1,62.2C469.6,65.3 470.9,68.6 471.9,71.9C473,75.2 473.6,78.6 474.5,82.4C475.2,81.6 476,81 476.5,80.3C481.4,73.8 483.8,66.3 484.8,58.3C485.6,52.2 486.3,46 487.2,39.9C487.3,39.3 488.3,38.8 488.9,38.3C489.5,38.9 490.4,39.4 490.5,40.1C491.1,45.2 491.4,50.3 492.1,55.3C493.3,63.9 495,72.4 500.3,79.6C503.1,83.3 506.8,85.8 510.9,87.6C519.9,91.5 529.6,92.3 539.2,93.4C541.8,93.7 544.4,93.8 547,94.2C547.7,94.3 548.3,95.1 549,95.6C548.3,96.1 547.7,97 547,97.1C543,97.6 539,97.8 535.1,98.4C529.1,99.3 523,100 517.1,101.5C505.7,104.3 498,111.2 494.8,122.8C492.4,131.3 490.9,139.8 490.6,148.6C490.6,149.4 490.7,150.4 490.4,151.1C490.1,151.7 489.3,152.4 488.7,152.4C488.1,152.4 487.2,151.6 487.1,151C486.2,145 485.6,139 484.7,133.1C483.4,125 481.4,117 476,110.4C475.8,110.1 475.5,109.8 474.9,109.1C474.7,110.6 474.5,111.6 474.5,112.7L474.5,307.8C474.4,332.2 463.3,350.2 442.6,362.6C436.1,366.4 428.9,368.5 421.5,369.6C420.5,369.8 419.6,370 418.3,370.3C423.7,373.5 428.7,376.4 433.7,379.3C444.3,385.4 453.8,392.8 461.7,402.1C469,410.5 474.4,419.9 477.8,430.6C482.6,445.8 482.7,461 479.1,476.5C477.2,484.6 474.6,492.6 470.3,499.8C465.9,507.2 460.7,513.9 452.8,517.8C446.2,521.1 437.6,520 434.9,513.4C433.5,510.1 433.9,505.7 434.5,502C436,492.5 438.7,483.1 438.1,473.5C437.2,458.4 432.4,445 419.2,436.1C411.6,431 403.6,426.3 395.8,421.4C387.1,415.9 378.2,410.6 369.8,404.7C362.9,399.9 357,393.8 351.9,387.1C351.4,386.5 351.3,385.6 351.1,384.9L349.6,385.8C349.6,389.2 349.3,392.6 349.6,396C350.5,407.8 352.1,419.5 354.7,431C357.6,443.6 362,455.8 366.6,467.9C369.1,474.7 372.1,481.3 374.5,488.2C377.1,495.6 378.6,503.3 378.9,511.1C379.1,517.1 379,523.2 379,529.2C379,537.1 376.4,544.3 373.1,551.3C369.5,558.8 364.8,565.6 359.1,571.7C354,577.2 348.1,580.9 340.2,580.3C336.1,580 331.4,576.1 331.5,571.9C331.7,564.9 332.2,557.8 333.2,550.9C335,538.5 333.7,526.5 329,515C325.5,506.4 321.2,498.1 317.6,489.6C313.9,480.6 310.4,471.6 307.2,462.4C302.5,449.1 300.4,435.2 298.9,421.3C298.1,413.7 297.9,406 297.3,398.4C297.2,397.2 297,396 296.7,394.9C296.1,392.7 294.6,391.4 292.3,391.4C289.7,391.5 287.5,393.6 287.3,396C287,399.9 286.9,403.8 286.6,407.7C285.9,415.9 285.1,424.1 284.4,432.5C286.8,432.7 289.3,432.8 291.8,433.2C292.6,433.3 293.3,434 294.1,434.5C293.3,434.9 292.7,435.6 291.9,435.7C289.3,436.1 285.7,435.3 284.1,436.8C282.5,438.2 283,441.8 282.3,444.4C280.1,452.7 278.4,461.1 275.5,469.1C271.3,480.7 266.4,492 261.3,503.2C254.4,518.1 250.4,533.5 252.2,550C252.8,555.6 253.9,561.1 254.7,566.6C255.2,569.8 254.8,573 253.1,575.9C250.2,580.9 242.6,581.4 237.5,579.7C232.1,577.9 228.3,574 224.7,570C218.8,563.5 214.4,556 210.7,548.1C207.5,541.3 206,534 206.1,526.4C206.1,519.6 206.2,512.8 206.4,506C206.6,499.1 208.5,492.6 210.8,486.2C213,480 215.3,473.9 217.6,467.7C220.1,460.7 222.8,453.8 225.3,446.8C226.1,444.6 226.6,442.4 227.3,440.2C227.9,438.1 227.1,437.1 225.1,436.9C221.8,436.6 218.5,436.3 215.2,435.8C214.4,435.7 213.6,435 212.8,434.5C213.6,434 214.3,433 215.1,432.9C220.1,432.1 225,431.5 230,430.9ZM356.6,189.7C356.7,181.8 354.5,172.9 349.2,164.8C343.7,156.3 336.5,149.6 326.3,147.1C315.1,144.3 304.5,146.1 295.2,153C282.6,162.4 276.6,175.5 276.2,191C275.9,201 278.5,210.3 283.8,218.8C292.2,232.3 303.9,239.4 320.2,238C329.7,237.2 337.6,233.1 343.8,226.3C352.8,216.5 356.7,204.6 356.6,189.7ZM454.3,174.4C453.5,170.3 452.9,166.1 451.8,162.1C449.9,154.4 445.2,148.5 438.8,144.2C429,137.6 417.5,139.7 410.2,147.3C400.6,157.2 397.4,169 400.1,182.6C401.7,190.4 404.5,197.2 410.6,202.7C414.6,206.4 418.8,208.7 424.2,209.5C431,210.5 436.9,208.8 441.6,204C449.6,195.8 454.1,186.1 454.3,174.4ZM473.2,83.5C471.5,84.5 470.1,85.5 468.5,86.3C462.3,89.5 455.5,91.1 448.6,92C444.4,92.5 440.2,93 436,93.7C435.3,93.8 434.7,94.7 434.1,95.2C434.8,95.7 435.5,96.4 436.2,96.5C442.4,97.5 448.6,98.2 454.8,99.3C460.7,100.4 466.4,102.3 471.5,105.7C472,106 472.5,106.1 473.2,106.4L473.2,83.5ZM338.8,275.7C338.8,279.5 342.3,285.7 345.9,288.1C352.5,292.5 359.6,292.9 367.1,291.1C371.6,290 376.3,288.9 378.5,284.4C379.8,282 380.3,278.9 380.2,276.2C380,273.8 377,274.6 375.3,273.9C366.8,270.5 358.3,267.2 349.8,263.9C349,263.6 348,263.3 347.2,263.6C342.8,265.1 338.8,271 338.8,275.7ZM230,431C229.6,432.9 229.1,435 228.7,437C230.9,437.8 233.1,438.4 235.2,439.2C241.9,441.7 246.3,446.5 247.8,453.4C249.2,459.6 249.8,466.1 250.9,472.4C251,473.1 251.7,473.7 252.1,474.3C252.4,473.7 252.9,473.1 253,472.5C253.7,467.5 254,462.5 254.9,457.6C257,446.3 261.9,440 274.4,437.4C277.2,436.8 280.1,436.3 283.1,435.7C283.2,434.7 283.4,433.7 283.5,432.8C279.6,432.1 275.9,431.6 272.3,430.7C264.3,428.7 258.2,424.1 256.2,415.8C254.7,409.4 254.1,402.8 253,396.3C252.9,395.5 252.3,394.8 252,394.1C251.6,394.9 251,395.5 250.9,396.3C250.2,401.5 249.8,406.7 248.8,411.9C246.8,422.4 240.8,429.1 230,431Z" style="fill:white;"/>
        </g>
    </g>
</svg>
